<svg xmlns="http://www.w3.org/2000/svg" viewBox="0 0 1200 630">
<defs><linearGradient id="b" x1="0" y1="0" x2="1" y2="1"><stop offset="0" stop-color="#2349c8"/><stop offset="1" stop-color="#141d49"/></linearGradient></defs>
<rect width="1200" height="630" fill="url(#b)"/>
<circle cx="1020" cy="120" r="300" fill="#ffffff" opacity="0.06"/>
<circle cx="160" cy="600" r="230" fill="#ffffff" opacity="0.05"/>
<g transform="translate(600 315)">
<g fill="#e7b948">
<rect x="-58" y="-156" width="26" height="40" rx="6"/><rect x="-13" y="-156" width="26" height="40" rx="6"/><rect x="32" y="-156" width="26" height="40" rx="6"/>
<rect x="-58" y="116" width="26" height="40" rx="6"/><rect x="-13" y="116" width="26" height="40" rx="6"/><rect x="32" y="116" width="26" height="40" rx="6"/>
<rect x="-156" y="-58" width="40" height="26" rx="6"/><rect x="-156" y="-13" width="40" height="26" rx="6"/><rect x="-156" y="32" width="40" height="26" rx="6"/>
<rect x="116" y="-58" width="40" height="26" rx="6"/><rect x="116" y="-13" width="40" height="26" rx="6"/><rect x="116" y="32" width="40" height="26" rx="6"/>
</g>
<rect x="-120" y="-120" width="240" height="240" rx="32" fill="#ffffff"/>
<rect x="-74" y="-74" width="148" height="148" rx="22" fill="none" stroke="#2349c8" stroke-width="9"/>
<text x="0" y="6" font-size="100" font-weight="800" fill="#2349c8" text-anchor="middle" dominant-baseline="central" font-family="Arial, sans-serif">AI</text>
</g></svg>
