<svg xmlns="http://www.w3.org/2000/svg" viewBox="0 0 1200 630">
<defs><linearGradient id="b" x1="0" y1="0" x2="1" y2="1"><stop offset="0" stop-color="#2349c8"/><stop offset="1" stop-color="#141d49"/></linearGradient></defs>
<rect width="1200" height="630" fill="url(#b)"/>
<circle cx="1020" cy="120" r="300" fill="#ffffff" opacity="0.06"/>
<circle cx="160" cy="600" r="230" fill="#ffffff" opacity="0.05"/>
<g transform="translate(600 315)" fill="#ffffff">
<rect x="-9" y="-150" width="18" height="270" rx="9"/>
<rect x="-160" y="-150" width="320" height="18" rx="9"/>
<circle cx="0" cy="-150" r="22" fill="#e7b948"/>
<rect x="-78" y="120" width="156" height="22" rx="11"/>
<path d="M-150 -132 L-198 -20 M-150 -132 L-102 -20" stroke="#ffffff" stroke-width="7"/>
<path d="M-210 -22 a60 34 0 0 0 120 0 Z" fill="#e7b948"/>
<path d="M150 -132 L102 -20 M150 -132 L198 -20" stroke="#ffffff" stroke-width="7"/>
<path d="M90 -22 a60 34 0 0 0 120 0 Z" fill="#e7b948"/>
</g></svg>
