<svg xmlns="http://www.w3.org/2000/svg" viewBox="0 0 1200 630">
<defs><linearGradient id="b" x1="0" y1="0" x2="1" y2="1"><stop offset="0" stop-color="#2349c8"/><stop offset="1" stop-color="#141d49"/></linearGradient></defs>
<rect width="1200" height="630" fill="url(#b)"/>
<circle cx="1020" cy="120" r="300" fill="#ffffff" opacity="0.06"/>
<circle cx="160" cy="600" r="230" fill="#ffffff" opacity="0.05"/>
<g transform="translate(600 315)">
<rect x="-150" y="-150" width="300" height="310" rx="16" fill="#ffffff"/>
<g fill="#bfd6fe">
<rect x="-112" y="-108" width="58" height="58" rx="8"/><rect x="-29" y="-108" width="58" height="58" rx="8"/><rect x="54" y="-108" width="58" height="58" rx="8"/>
<rect x="-112" y="-26" width="58" height="58" rx="8"/><rect x="54" y="-26" width="58" height="58" rx="8"/>
<rect x="-112" y="56" width="58" height="58" rx="8"/><rect x="-29" y="56" width="58" height="58" rx="8"/><rect x="54" y="56" width="58" height="58" rx="8"/>
</g>
<circle cx="120" cy="-130" r="66" fill="#e7b948"/>
<rect x="111" y="-166" width="18" height="46" rx="9" fill="#141d49"/>
<circle cx="120" cy="-92" r="11" fill="#141d49"/>
</g></svg>
